<svg width="16" height="16" viewBox="0 0 16 16" fill="none" xmlns="http://www.w3.org/2000/svg">
<path fill-rule="evenodd" clip-rule="evenodd" d="M5.02092 2.46259C4.54575 3.05248 4.36364 3.93078 4.36364 5.09091V6.54545C4.36364 6.94712 4.03803 7.27273 3.63636 7.27273C3.2347 7.27273 2.90909 6.94712 2.90909 6.54545V5.09091C2.90909 3.84377 3.09061 2.54025 3.88817 1.55014C4.71309 0.52605 6.05734 0 8 0C9.94266 0 11.2869 0.52605 12.1118 1.55014C12.9094 2.54025 13.0909 3.84377 13.0909 5.09091V6.54545C13.0909 6.94712 12.7653 7.27273 12.3636 7.27273C11.962 7.27273 11.6364 6.94712 11.6364 6.54545V5.09091C11.6364 3.93078 11.4542 3.05248 10.9791 2.46259C10.5313 1.90668 9.69371 1.45455 8 1.45455C6.30629 1.45455 5.46872 1.90668 5.02092 2.46259Z" fill="black"/>
<path fill-rule="evenodd" clip-rule="evenodd" d="M1.96881 7.78699C1.65463 8.10116 1.45455 8.72208 1.45455 10.1818V11.6364C1.45455 13.0961 1.65463 13.717 1.96881 14.0312C2.28298 14.3454 2.90389 14.5455 4.36364 14.5455H11.6364C13.0961 14.5455 13.717 14.3454 14.0312 14.0312C14.3454 13.717 14.5455 13.0961 14.5455 11.6364V10.1818C14.5455 8.72208 14.3454 8.10116 14.0312 7.78699C13.717 7.47281 13.0961 7.27273 11.6364 7.27273H4.36364C2.90389 7.27273 2.28298 7.47281 1.96881 7.78699ZM0.940286 6.75847C1.71702 5.98174 2.91429 5.81818 4.36364 5.81818H11.6364C13.0857 5.81818 14.283 5.98174 15.0597 6.75847C15.8364 7.5352 16 8.73247 16 10.1818V11.6364C16 13.0857 15.8364 14.283 15.0597 15.0597C14.283 15.8364 13.0857 16 11.6364 16H4.36364C2.91429 16 1.71702 15.8364 0.940286 15.0597C0.163553 14.283 0 13.0857 0 11.6364V10.1818C0 8.73247 0.163553 7.5352 0.940286 6.75847Z" fill="black"/>
<path fill-rule="evenodd" clip-rule="evenodd" d="M9.93682 10.9091C9.93682 10.3735 10.371 9.93939 10.9065 9.93939H10.913C11.4486 9.93939 11.8827 10.3735 11.8827 10.9091C11.8827 11.4446 11.4486 11.8788 10.913 11.8788H10.9065C10.371 11.8788 9.93682 11.4446 9.93682 10.9091Z" fill="black"/>
<path fill-rule="evenodd" clip-rule="evenodd" d="M7.02702 10.9091C7.02702 10.3735 7.46117 9.93939 7.99672 9.93939H8.00325C8.5388 9.93939 8.97295 10.3735 8.97295 10.9091C8.97295 11.4446 8.5388 11.8788 8.00325 11.8788H7.99672C7.46117 11.8788 7.02702 11.4446 7.02702 10.9091Z" fill="black"/>
<path fill-rule="evenodd" clip-rule="evenodd" d="M4.11722 10.9091C4.11722 10.3735 4.55137 9.93939 5.08691 9.93939H5.09345C5.629 9.93939 6.06314 10.3735 6.06314 10.9091C6.06314 11.4446 5.629 11.8788 5.09345 11.8788H5.08691C4.55137 11.8788 4.11722 11.4446 4.11722 10.9091Z" fill="black"/>
</svg>
