<svg width="19" height="16" viewBox="0 0 19 16" fill="none" xmlns="http://www.w3.org/2000/svg">
<path fill-rule="evenodd" clip-rule="evenodd" d="M2.57301 2.45919C2.05517 2.94005 1.68421 3.73945 1.68421 5.05263C1.68421 5.51771 1.30719 5.89474 0.842105 5.89474C0.377023 5.89474 0 5.51771 0 5.05263C0 3.41844 0.471147 2.11258 1.42699 1.22502C2.37153 0.34794 3.66038 0 5.05263 0H13.4737C14.8659 0 16.1548 0.34794 17.0993 1.22502C18.0552 2.11258 18.5263 3.41844 18.5263 5.05263V10.9474C18.5263 12.5816 18.0552 13.8874 17.0993 14.775C16.1548 15.6521 14.8659 16 13.4737 16H5.05263C4.58755 16 4.21053 15.623 4.21053 15.1579C4.21053 14.6928 4.58755 14.3158 5.05263 14.3158H13.4737C14.6078 14.3158 15.4242 14.0322 15.9533 13.5408C16.4711 13.06 16.8421 12.2605 16.8421 10.9474V5.05263C16.8421 3.73945 16.4711 2.94005 15.9533 2.45919C15.4242 1.96785 14.6078 1.68421 13.4737 1.68421H5.05263C3.91856 1.68421 3.10215 1.96785 2.57301 2.45919Z" fill="black"/>
<path fill-rule="evenodd" clip-rule="evenodd" d="M14.1321 4.94794C14.4224 5.31133 14.3631 5.84122 13.9997 6.13147L11.3628 8.23757C10.1885 9.17247 8.33027 9.17247 7.15594 8.23757L7.15386 8.23591L4.5265 6.13065C4.16356 5.83983 4.10509 5.30985 4.39591 4.94691C4.68673 4.58397 5.21671 4.5255 5.57965 4.81632L8.20493 6.91993C8.20523 6.92017 8.20553 6.9204 8.20583 6.92064C8.76626 7.36597 9.75328 7.36584 10.3135 6.92023C10.3133 6.92034 10.3136 6.92013 10.3135 6.92023L12.9486 4.8155C13.312 4.52525 13.8419 4.58454 14.1321 4.94794Z" fill="black"/>
<path fill-rule="evenodd" clip-rule="evenodd" d="M0 11.7894C0 11.3243 0.377023 10.9473 0.842105 10.9473H5.89474C6.35982 10.9473 6.73684 11.3243 6.73684 11.7894C6.73684 12.2545 6.35982 12.6315 5.89474 12.6315H0.842105C0.377023 12.6315 0 12.2545 0 11.7894Z" fill="black"/>
<path fill-rule="evenodd" clip-rule="evenodd" d="M0 8.42121C0 7.95612 0.377023 7.5791 0.842105 7.5791H3.36842C3.8335 7.5791 4.21053 7.95612 4.21053 8.42121C4.21053 8.88629 3.8335 9.26331 3.36842 9.26331H0.842105C0.377023 9.26331 0 8.88629 0 8.42121Z" fill="black"/>
</svg>
